<svg xmlns="http://www.w3.org/2000/svg" version="1.1" xmlns:xlink="http://www.w3.org/1999/xlink" xmlns:svgjs="http://svgjs.dev/svgjs" width="1440" height="1080" preserveAspectRatio="none" viewBox="0 0 1440 1080"><g mask="url(&quot;#SvgjsMask1049&quot;)" fill="none"><rect width="1440" height="1080" x="0" y="0" fill="rgba(70, 129, 189, 1)"></rect><path d="M -469.51561851015225,102 C -325.52,232.4 -37.52,732.6 250.48438148984775,754 C 538.48,775.4 682.48,144 970.4843814898477,209 C 1258.48,274 1596.58,1048 1690.4843814898477,1079 C 1784.39,1110 1490.1,507 1440,364" stroke="rgba(1, 48, 97, 0.75)" stroke-width="2"></path><path d="M -1220.571473166909,650 C -1076.57,619.2 -788.57,513.6 -500.57147316690913,496 C -212.57,478.4 -68.57,622 219.42852683309087,562 C 507.43,502 695.31,133.2 939.4285268330909,196 C 1183.54,258.8 1339.89,740 1440,876" stroke="rgba(1, 48, 97, 0.75)" stroke-width="2"></path><path d="M -880.4887626480602,188 C -736.49,322.6 -448.49,830.6 -160.48876264806015,861 C 127.51,891.4 271.51,298.8 559.5112373519398,340 C 847.51,381.2 1103.41,1083.4 1279.5112373519398,1067 C 1455.61,1050.6 1407.9,419.8 1440,258" stroke="rgba(1, 48, 97, 0.75)" stroke-width="2"></path><path d="M -1427.0573464102945,530 C -1283.06,599.8 -995.06,960.8 -707.0573464102944,879 C -419.06,797.2 -275.06,118.4 12.942653589705628,121 C 300.94,123.6 447.53,815 732.9426535897056,892 C 1018.35,969 1298.59,583.2 1440,506" stroke="rgba(1, 48, 97, 0.75)" stroke-width="2"></path><path d="M -286.5767368127358,710 C -142.58,589 145.42,36 433.4232631872642,105 C 721.42,174 865.42,1034 1153.4232631872642,1055 C 1441.42,1076 1816.11,215.2 1873.4232631872642,210 C 1930.74,204.8 1526.68,865.2 1440,1029" stroke="rgba(1, 48, 97, 0.75)" stroke-width="2"></path></g><defs><mask id="SvgjsMask1049"><rect width="1440" height="1080" fill="#ffffff"></rect></mask></defs></svg>